<svg xmlns="http://www.w3.org/2000/svg" xmlns:xlink="http://www.w3.org/1999/xlink" width="499.58356" height="524.33447" version="1.0"><defs><linearGradient id="g"><stop offset="0" stop-color="#824b00"/><stop offset="0.5" stop-color="#deab2d"/><stop offset="1" stop-color="#824b00"/></linearGradient><linearGradient id="f"><stop offset="0" stop-color="#d9bd55"/><stop offset="1" stop-color="#d9bd55" stop-opacity="0"/></linearGradient><linearGradient id="e"><stop offset="0" stop-color="#deab2d"/><stop offset="1" stop-color="#824b00"/></linearGradient><linearGradient id="d"><stop offset="0" stop-color="#824b00"/><stop offset="1" stop-color="#b07b00"/></linearGradient><linearGradient id="c"><stop offset="0" stop-color="#c38c00"/><stop offset="0.25" stop-color="#e9de94"/><stop offset="0.5" stop-color="#c38c00"/><stop offset="0.75" stop-color="#e9de94"/><stop offset="1" stop-color="#c38c00"/></linearGradient><linearGradient id="b"><stop offset="0" stop-color="#e9de94"/><stop offset="1" stop-color="#e9de94" stop-opacity="0"/></linearGradient><linearGradient id="a"><stop offset="0" stop-color="#865100"/><stop offset="1" stop-color="#865100" stop-opacity="0"/></linearGradient><linearGradient xlink:href="#c" id="n" x1="184.87541" y1="655.24652" x2="563.55231" y2="366.72134" gradientUnits="userSpaceOnUse" gradientTransform="translate(40 -8.6)"/><linearGradient xlink:href="#e" id="p" gradientUnits="userSpaceOnUse" x1="152.625" y1="559.72064" x2="362.36188" y2="559.72064" gradientTransform="translate(42.2 -8.4)"/><linearGradient xlink:href="#d" id="o" gradientUnits="userSpaceOnUse" x1="322.5061" y1="596.06561" x2="363.5625" y2="605.40369" gradientTransform="translate(42.2 -8.4)"/><linearGradient xlink:href="#e" id="q" x1="74.244423" y1="151.18668" x2="55.826202" y2="201.18668" gradientUnits="userSpaceOnUse"/><linearGradient xlink:href="#g" id="r" x1="104.23959" y1="7.7045135" x2="253.3033" y2="272.03915" gradientUnits="userSpaceOnUse"/><linearGradient xlink:href="#e" id="s" x1="322.97101" y1="144.93362" x2="267.71936" y2="144.93362" gradientUnits="userSpaceOnUse"/><linearGradient xlink:href="#e" id="t" x1="440.69827" y1="209.77686" x2="408.98047" y2="174.24997" gradientUnits="userSpaceOnUse"/><linearGradient xlink:href="#e" id="u" x1="502.7529" y1="315.09189" x2="288.14603" y2="287.51471" gradientUnits="userSpaceOnUse"/><linearGradient xlink:href="#d" id="v" x1="327.47882" y1="371.94208" x2="288.49957" y2="404.46899" gradientUnits="userSpaceOnUse"/><linearGradient xlink:href="#g" id="w" x1="185.56729" y1="508.37265" x2="268.01138" y2="508.36008" gradientUnits="userSpaceOnUse"/><radialGradient xlink:href="#b" id="h" gradientUnits="userSpaceOnUse" gradientTransform="matrix(.2645 -.02322 .02877 .32768 285.6 253.2)" cx="696.23462" cy="318.09991" fx="696.23462" fy="318.09991" r="249.79179"/><radialGradient xlink:href="#a" id="i" gradientUnits="userSpaceOnUse" gradientTransform="matrix(-.72903 -.02972 .02033 -.49867 888.7 928.3)" cx="458.67865" cy="708.93274" fx="458.67865" fy="708.93274" r="249.79179"/><radialGradient xlink:href="#a" id="j" gradientUnits="userSpaceOnUse" gradientTransform="matrix(-.41286 -.0271 .02107 -.32106 662.5 858)" cx="746.81195" cy="257.75104" fx="746.81195" fy="257.75104" r="249.79179"/><radialGradient xlink:href="#a" id="k" gradientUnits="userSpaceOnUse" gradientTransform="matrix(-.72889 .03317 -.01202 -.26412 909.7 710.6)" cx="1026.5966" cy="652.80103" fx="1026.5966" fy="652.80103" r="249.79179"/><radialGradient xlink:href="#b" id="l" gradientUnits="userSpaceOnUse" gradientTransform="matrix(.45323 -.0461 .03329 .32725 146 270)" cx="91.299866" cy="266.78873" fx="91.299866" fy="266.78873" r="249.79179"/><radialGradient xlink:href="#f" id="m" gradientUnits="userSpaceOnUse" gradientTransform="matrix(.45323 -.0461 .03329 .32725 146 270)" cx="7.0530348" cy="611.98212" fx="7.0530348" fy="611.98212" r="249.79179"/></defs><g fill-rule="evenodd"><path d="M206.9 509.9c17.9 17.8 50.8 19.6 74 2.7 4-27.8 7.4-56 5.3-86.6 46 23.6 61 29.2 117.7 21.2a192.3 192.3 0 0 0 6.8-90.6c38-6 68-24 88.9-55.6-16.8-49-27-59.8-57.8-95 11.8-39.4 15.6-57.8 12-98.4-50.7-19.9-65.7-21.3-124.6-17.6-24.2-54-35.6-60.7-75.6-90-57.3 46.4-64.4 43.5-100 101.3-57.5-2.3-72-6.8-124.2 17.8 9.9 46.5 7.2 53.6 30 103.6-32.9 35.7-46 39.8-59.4 88.9 31.1 22 44.7 34.5 90.6 46.2-3.5 23.4-7.2 53.6 19 88 50-1 53.7 3.8 118-16.8-6.3 27.8-13.4 54.5-20.7 80.9z" fill="#c90"/><path d="M314.4 757.4c17.9 17.8 50.8 19.7 74 2.8 4-27.8 7.4-56 5.3-86.6 46 23.6 61 29.1 117.7 21.2a192.3 192.3 0 0 0 6.8-90.7c38-6 68-24 88.9-55.6-16.8-48.9-27-59.7-57.8-95 11.8-39.3 15.6-57.7 12-98.4-50.7-19.8-65.7-21.3-124.6-17.6-24.2-54-35.5-60.6-75.5-90-57.3 46.5-64.5 43.6-100 101.4-57.6-2.3-72-6.9-124.3 17.7 10 46.6 7.2 53.7 30 103.6-32.9 35.7-46 39.8-59.4 88.9 31.1 22 44.7 34.5 90.6 46.2-3.5 23.4-7.2 53.6 19 88 50-1 53.7 3.8 118-16.7-6.3 27.8-13.4 54.4-20.7 80.8z" fill="url(#h)" transform="translate(-107.5 -247.5)"/><path d="M314.4 757.4c17.9 17.8 50.8 19.7 74 2.8 4-27.8 7.4-56 5.3-86.6 46 23.6 61 29.1 117.7 21.2a192.3 192.3 0 0 0 6.8-90.7c38-6 68-24 88.9-55.6l-499.6 10.6c31.1 22 44.7 34.5 90.6 46.2-3.5 23.4-7.2 53.6 19 88 50-1 53.7 3.8 118-16.7-6.3 27.8-13.4 54.4-20.7 80.8z" fill="url(#i)" transform="translate(-107.5 -247.5)"/><path d="M314.4 757.4c17.9 17.8 50.8 19.7 74 2.8 4-27.8 7.4-56 5.3-86.6l-58.6 3c-6.3 27.8-13.4 54.4-20.7 80.8z" fill="url(#j)" transform="translate(-107.5 -247.5)"/><path d="M314.4 757.4c17.9 17.8 50.8 19.7 74 2.8 4-27.8 7.4-56 5.3-86.6 46 23.6 61 29.1 117.7 21.2a192.3 192.3 0 0 0 6.8-90.7c38-6 68-24 88.9-55.6l-499.6 10.6c31.1 22 44.7 34.5 90.6 46.2-3.5 23.4-7.2 53.6 19 88 50-1 53.7 3.8 118-16.7-6.3 27.8-13.4 54.4-20.7 80.8z" fill="url(#k)" transform="translate(-107.5 -247.5)"/><path d="M314.4 757.4c17.9 17.8 50.8 19.7 74 2.8 4-27.8 7.4-56 5.3-86.6 46 23.6 61 29.1 117.7 21.2a192.3 192.3 0 0 0 6.8-90.7c38-6 68-24 88.9-55.6-16.8-48.9-27-59.7-57.8-95 11.8-39.3 15.6-57.7 12-98.4-50.7-19.8-65.7-21.3-124.6-17.6-24.2-54-35.5-60.6-75.5-90-57.3 46.5-64.5 43.6-100 101.4-57.6-2.3-72-6.9-124.3 17.7 10 46.6 7.2 53.7 30 103.6-32.9 35.7-46 39.8-59.4 88.9 31.1 22 44.7 34.5 90.6 46.2-3.5 23.4-7.2 53.6 19 88 50-1 53.7 3.8 118-16.7-6.3 27.8-13.4 54.4-20.7 80.8z" fill="url(#l)" transform="translate(-107.5 -247.5)"/><path d="M314.4 757.4c17.9 17.8 50.8 19.7 74 2.8 4-27.8 7.4-56 5.3-86.6 46 23.6 61 29.1 117.7 21.2a192.3 192.3 0 0 0 6.8-90.7c38-6 68-24 88.9-55.6-16.8-48.9-27-59.7-57.8-95 11.8-39.3 15.6-57.7 12-98.4-50.7-19.8-65.7-21.3-124.6-17.6-24.2-54-35.5-60.6-75.5-90-57.3 46.5-64.5 43.6-100 101.4-57.6-2.3-72-6.9-124.3 17.7 10 46.6 7.2 53.7 30 103.6-32.9 35.7-46 39.8-59.4 88.9 31.1 22 44.7 34.5 90.6 46.2-3.5 23.4-7.2 53.6 19 88 50-1 53.7 3.8 118-16.7-6.3 27.8-13.4 54.4-20.7 80.8z" fill="url(#m)" transform="translate(-107.5 -247.5)"/></g><path d="M362 747.7c17.2 14.8 40.5 16.6 62.8 2.6 3.9-26.8 5.4-66.3 3.4-95.8 44.3 22.7 65.5 35.3 120.1 27.7 9.3-27.3 9-60.3 4.6-91.2 36.6-5.7 70.6-20.8 90.7-51.3-16.2-47.2-29.3-59-59-92.9 11.4-38 15.7-56.5 12.4-95.7-49-19.2-65.2-19-122-15.5-23.2-52-34.1-61.5-72.7-89.8-55.2 44.8-61.8 45-96 100.8-55.5-2.3-71.4-8.7-121.8 15.1 9.5 44.9 9 54 30.8 102.2-31.6 34.4-46.4 40.6-59.2 88 30 21.2 44.7 30 88.8 41.2-3.3 22.6-9.3 54 16 87.2 48-1 62-.6 124.1-20.4-6.1 26.8-16 62.3-23 87.8z" fill="url(#n)" fill-rule="evenodd" transform="translate(-148.8 -239.3)"/><g fill-rule="evenodd"><path transform="translate(-148.8 -239.3)" d="M405.7 530 386 654c-53.9 16.3-62.5 21.4-120.7 22 12.2-50 120.5-135.3 140.5-146z" fill="url(#o)"/><path transform="translate(-148.8 -239.3)" d="M159.3 549.9c84.1-34.4 114-49 244.7-27.2-79.7 24.4-82.5 22.8-154.7 67.6-33.2-10.1-64.1-22.6-90-40.4z" fill="url(#p)"/><path d="M69.5 223.6c-21.3-41.7-20.3-59.5-30.3-98.8 94 46 108.3 39.8 217.1 152.8-106.1-42.7-94.7-36.1-186.8-54z" fill="url(#q)"/><path d="M257.5 275.1c-36-62.3-71.2-115.4-102.3-164l5.7.1c39.5 51.8 60.7 92.8 96.6 164z" fill="url(#r)"/><path d="M254.3 12c26.2 18 49.2 38.3 68.7 86.2A1956.3 1956.3 0 0 1 260.5 278c-10.2-89.4-4.5-177.3-6.3-266z" fill="url(#s)"/><path d="M260.8 279.8c55.3-27.3 82-37.5 172.4-76.3 10.3-29.4 11.6-58.8 12.6-88.2-63.1 54.4-129.4 107.7-185 164.5z" fill="url(#t)"/><path d="M263.8 283.2c109.8-19.2 98.1-3.5 224.8 17-17.7 29.8-52 42.4-86.6 48.4-43.5-27.8-51.5-31.2-138.2-65.4z" fill="url(#u)"/><path d="M393.9 439.3a145 145 0 0 1-110-30.6A358.4 358.4 0 0 0 261.1 292c62.8 56.2 92.6 95.7 132.8 147.3z" fill="url(#v)"/><path d="M213.2 508.2c9.7-15 68-9.4 62.8 3-17.8 13.1-49 13-62.8-3z" fill="url(#w)"/></g></svg>